<?xml version="1.0" encoding="utf-8"?>
<!-- Generator: Adobe Illustrator 16.0.0, SVG Export Plug-In . SVG Version: 6.00 Build 0)  -->
<!DOCTYPE svg PUBLIC "-//W3C//DTD SVG 1.1//EN" "http://www.w3.org/Graphics/SVG/1.1/DTD/svg11.dtd">
<svg version="1.1" id="Capa_1" xmlns="http://www.w3.org/2000/svg" xmlns:xlink="http://www.w3.org/1999/xlink" x="0px" y="0px"
	 width="512px" height="512px" viewBox="0 0 512 512" enable-background="new 0 0 512 512" xml:space="preserve">
<g>
	<g>
		<path fill="#171717" d="M449.496,61.179H62.609C28.074,61.179,0,89.253,0,123.789v264.422c0,34.536,28.074,62.609,62.609,62.609
			h386.781c34.536,0,62.609-28.073,62.609-62.609V123.895C512.105,89.359,484.032,61.179,449.496,61.179z M483.503,388.211
			c0,18.751-15.256,34.006-34.007,34.006H62.609c-18.751,0-34.006-15.255-34.006-34.006V123.895
			c0-18.751,15.255-34.006,34.006-34.006h386.781c18.751,0,34.006,15.255,34.006,34.006v264.316H483.503z"/>
		<path fill="#171717" d="M322.9,252.716l125.219-112.294c5.826-5.297,6.356-14.302,1.06-20.234
			c-5.297-5.827-14.302-6.356-20.234-1.059l-172.68,154.987l-33.688-30.086c-0.106-0.106-0.212-0.212-0.212-0.318
			c-0.742-0.741-1.483-1.377-2.331-2.013L82.95,119.021c-5.933-5.297-14.938-4.767-20.234,1.166s-4.767,14.938,1.166,20.234
			l126.702,113.248L64.411,371.791c-5.721,5.402-6.039,14.407-0.636,20.234c2.86,2.966,6.674,4.555,10.488,4.555
			c3.496,0,6.992-1.271,9.747-3.813L212.088,272.95l34.748,31.04c2.754,2.437,6.145,3.602,9.534,3.602
			c3.39,0,6.886-1.271,9.535-3.707l35.701-31.994l127.338,120.981c2.755,2.648,6.356,3.92,9.853,3.92
			c3.813,0,7.521-1.483,10.382-4.449c5.402-5.721,5.19-14.831-0.53-20.234L322.9,252.716z"/>
	</g>
</g>
</svg>
