<?xml version="1.0" encoding="utf-8"?>
<!-- Generator: Adobe Illustrator 16.0.0, SVG Export Plug-In . SVG Version: 6.00 Build 0)  -->
<!DOCTYPE svg PUBLIC "-//W3C//DTD SVG 1.1//EN" "http://www.w3.org/Graphics/SVG/1.1/DTD/svg11.dtd">
<svg version="1.1" id="Capa_1" xmlns="http://www.w3.org/2000/svg" xmlns:xlink="http://www.w3.org/1999/xlink" x="0px" y="0px"
	 width="419px" height="512px" viewBox="0 0 419 512" enable-background="new 0 0 419 512" xml:space="preserve">
<g>
	<g>
		<path fill="#171717" d="M209.556,0C96.422,0,4.326,92.096,4.326,205.229c0,12.88,1.181,25.868,3.65,38.534
			c0.107,0.751,0.537,3.005,1.395,6.87c3.113,13.846,7.729,27.479,13.739,40.467c22.112,52.059,70.735,132.024,177.429,217.681
			c2.683,2.146,5.903,3.22,9.124,3.22s6.439-1.073,9.123-3.22c106.587-85.655,155.318-165.622,177.43-217.681
			c6.012-12.988,10.626-26.513,13.739-40.466c0.858-3.864,1.288-6.119,1.396-6.87c2.36-12.666,3.648-25.654,3.648-38.534
			C414.785,92.096,322.689,0,209.556,0z M382.584,238.719c0,0.214-0.106,0.429-0.106,0.644c-0.107,0.537-0.431,2.146-0.967,4.615
			c0,0.107,0,0.107,0,0.215c-2.684,12.022-6.654,23.721-11.915,34.993c-0.106,0.106-0.106,0.321-0.215,0.43
			c-20.071,47.55-64.08,120.109-159.825,199.219C113.811,399.726,69.803,327.165,49.73,279.615c-0.107-0.107-0.107-0.322-0.214-0.43
			c-5.152-11.164-9.124-22.971-11.915-34.993c0-0.107,0-0.107,0-0.215c-0.644-2.469-0.859-4.079-0.966-4.615
			c0-0.215-0.107-0.429-0.107-0.751c-2.147-11.056-3.22-22.219-3.22-33.489c0-97.141,79.107-176.248,176.248-176.248
			c97.142,0,176.248,79.107,176.248,176.248C385.804,216.5,384.73,227.77,382.584,238.719z"/>
		<path fill="#171717" d="M209.556,77.176c-71.809,0-130.308,58.499-130.308,130.308s58.499,130.308,130.308,130.308
			c71.81,0,130.308-58.5,130.308-130.309S281.364,77.176,209.556,77.176z M209.556,308.811
			c-55.922,0-101.327-45.512-101.327-101.327s45.511-101.327,101.327-101.327c55.816,0,101.327,45.511,101.327,101.326
			S265.479,308.811,209.556,308.811z"/>
	</g>
</g>
</svg>
