<?xml version="1.0" encoding="utf-8"?>
<!-- Generator: Adobe Illustrator 16.0.0, SVG Export Plug-In . SVG Version: 6.00 Build 0)  -->
<!DOCTYPE svg PUBLIC "-//W3C//DTD SVG 1.1//EN" "http://www.w3.org/Graphics/SVG/1.1/DTD/svg11.dtd">
<svg version="1.1" id="Layer_1" xmlns="http://www.w3.org/2000/svg" xmlns:xlink="http://www.w3.org/1999/xlink" x="0px" y="0px"
	 width="512px" height="512px" viewBox="0 0 512 512" enable-background="new 0 0 512 512" xml:space="preserve">
<g>
	<g>
		<path fill="#171717" d="M401.898,121.81c-2.526-1.502-5.656-1.561-8.239-0.159l-53.608,29.145v-0.733
			c0-18.075-14.705-32.781-32.779-32.781h-168.46c-18.075,0-32.781,14.706-32.781,32.781v116.794
			c0,18.074,14.706,32.781,32.781,32.781h120.685c4.602,0,8.332-3.731,8.332-8.332c0-4.602-3.73-8.332-8.332-8.332H138.811
			c-8.886,0-16.117-7.23-16.117-16.117V150.062c0-8.886,7.23-16.117,16.117-16.117h168.461c8.886,0,16.114,7.23,16.114,16.117
			v14.747v87.299v14.748c0,8.886-7.229,16.117-16.114,16.117H287.27c-4.603,0-8.332,3.73-8.332,8.332
			c0,4.601,3.73,8.332,8.332,8.332h20.003c18.074,0,32.779-14.707,32.779-32.781v-0.733l53.608,29.146
			c1.243,0.674,2.612,1.012,3.98,1.012c1.475,0,2.947-0.391,4.259-1.17c2.524-1.502,4.073-4.225,4.073-7.162V128.97
			C405.972,126.033,404.424,123.312,401.898,121.81z M389.308,273.936l-49.256-26.778v-77.392l49.256-26.778V273.936z"/>
	</g>
</g>
<g>
	<g>
		<path fill="#171717" d="M276.072,201.245l-72.205-41.687c-2.577-1.489-5.755-1.489-8.332,0c-2.577,1.489-4.166,4.238-4.166,7.216
			v83.376c0,2.977,1.589,5.727,4.166,7.216c1.289,0.743,2.727,1.116,4.166,1.116s2.877-0.371,4.166-1.116l72.205-41.687
			c2.576-1.489,4.166-4.238,4.166-7.216S278.65,202.733,276.072,201.245z M208.033,235.716v-54.512l47.209,27.256L208.033,235.716z"
			/>
	</g>
</g>
<g>
	<g>
		<path fill="#171717" d="M471.246,24.766H40.754C18.283,24.766,0,43.049,0,65.52v59.227c0,4.602,3.731,8.332,8.332,8.332
			s8.332-3.731,8.332-8.332V65.52c0-13.284,10.807-24.09,24.09-24.09h430.492c13.284,0,24.09,10.807,24.09,24.09v284.412h-52.21
			c-4.602,0-8.332,3.73-8.332,8.332c0,4.601,3.731,8.332,8.332,8.332h52.21v15.272c0,13.284-10.807,24.09-24.09,24.09h-155.41
			H196.164H40.754c-13.284,0-24.09-10.808-24.09-24.09v-15.272h398.688c4.603,0,8.332-3.731,8.332-8.332
			c0-4.602-3.73-8.332-8.332-8.332H16.664v-197.41c0-4.602-3.731-8.332-8.332-8.332S0,147.92,0,152.522V381.87
			c0,22.472,18.283,40.754,40.754,40.754H183.54l-20.494,47.945h-40.034c-4.602,0-8.332,3.73-8.332,8.332
			c0,4.601,3.731,8.332,8.332,8.332h265.975c4.602,0,8.332-3.731,8.332-8.332c0-4.602-3.731-8.332-8.332-8.332h-40.034
			l-20.494-47.945h142.786c22.472,0,40.754-18.282,40.754-40.754V65.52C512,43.049,493.717,24.766,471.246,24.766z M330.83,470.568
			H181.17l14.238-33.311h121.185L330.83,470.568z"/>
	</g>
</g>
<g>
	<g>
		<path fill="#171717" d="M262.924,379.68c-1.914-2.906-5.583-4.3-8.952-3.457c-3.517,0.879-6.116,4.047-6.291,7.67
			c-0.364,7.533,9.106,11.629,14.331,6.172C264.674,387.282,265.089,382.887,262.924,379.68z"/>
	</g>
</g>
</svg>
