<?xml version="1.0" encoding="utf-8"?>
<!-- Generator: Adobe Illustrator 16.0.0, SVG Export Plug-In . SVG Version: 6.00 Build 0)  -->
<!DOCTYPE svg PUBLIC "-//W3C//DTD SVG 1.1//EN" "http://www.w3.org/Graphics/SVG/1.1/DTD/svg11.dtd">
<svg version="1.1" id="Layer_1" xmlns="http://www.w3.org/2000/svg" xmlns:xlink="http://www.w3.org/1999/xlink" x="0px" y="0px"
	 width="512px" height="512px" viewBox="0 0 512 512" enable-background="new 0 0 512 512" xml:space="preserve">
<g>
	<g>
		<path fill="#171717" d="M362.652,95.523l-15.411-10.706c-13.575-9.43-32.29-6.059-41.724,7.517l-35.545,51.167
			c-2.625,3.779-1.69,8.971,2.088,11.596c3.779,2.625,8.973,1.69,11.598-2.089l15.408-22.179l37.277,25.896L256.75,271.298
			l-37.278-25.897l49.074-70.641c2.625-3.779,1.69-8.971-2.09-11.596c-3.779-2.626-8.972-1.69-11.596,2.089l-53.828,77.483
			c-0.891,1.283-1.403,2.79-1.48,4.349l-2.842,58.474c-0.139,2.871,1.209,5.608,3.568,7.248c1.418,0.984,3.08,1.489,4.754,1.489
			c1.112,0,2.229-0.222,3.283-0.674l53.805-23.069c1.437-0.613,2.67-1.619,3.562-2.902l104.486-150.404
			C379.599,123.671,376.228,104.954,362.652,95.523z M214.002,293.055l1.465-30.142l26.271,18.251L214.002,293.055z
			 M356.483,127.739l-10.632,15.302l-37.277-25.897l10.631-15.302c4.188-6.029,12.5-7.526,18.53-3.338l15.411,10.706
			C359.174,113.397,360.671,121.71,356.483,127.739z"/>
	</g>
</g>
<g>
	<g>
		<path fill="#171717" d="M431.512,117.493h-32.627c-4.602,0-8.332,3.731-8.332,8.332c0,4.602,3.731,8.332,8.332,8.332h32.627
			c4.603,0,8.332-3.731,8.332-8.332C439.844,121.224,436.113,117.493,431.512,117.493z"/>
	</g>
</g>
<g>
	<g>
		<path fill="#171717" d="M261.225,117.493H80.484c-4.602,0-8.332,3.731-8.332,8.332c0,4.602,3.731,8.332,8.332,8.332h180.741
			c4.602,0,8.332-3.731,8.332-8.332C269.557,121.224,265.826,117.493,261.225,117.493z"/>
	</g>
</g>
<g>
	<g>
		<path fill="#171717" d="M431.512,177.54h-69.287c-4.602,0-8.332,3.731-8.332,8.332s3.731,8.332,8.332,8.332h69.287
			c4.603,0,8.332-3.731,8.332-8.332S436.113,177.54,431.512,177.54z"/>
	</g>
</g>
<g>
	<g>
		<path fill="#171717" d="M219.508,177.54H80.484c-4.602,0-8.332,3.731-8.332,8.332s3.731,8.332,8.332,8.332h139.024
			c4.602,0,8.332-3.731,8.332-8.332S224.11,177.54,219.508,177.54z"/>
	</g>
</g>
<g>
	<g>
		<path fill="#171717" d="M431.512,237.587H320.567c-4.603,0-8.332,3.731-8.332,8.332s3.73,8.332,8.332,8.332h110.944
			c4.603,0,8.332-3.731,8.332-8.332S436.113,237.587,431.512,237.587z"/>
	</g>
</g>
<g>
	<g>
		<path fill="#171717" d="M182.814,237.587H80.484c-4.602,0-8.332,3.731-8.332,8.332s3.731,8.332,8.332,8.332h102.331
			c4.602,0,8.332-3.731,8.332-8.332S187.416,237.587,182.814,237.587z"/>
	</g>
</g>
<g>
	<g>
		<path fill="#171717" d="M431.514,297.634H267.243c-4.603,0-8.332,3.731-8.332,8.332s3.731,8.332,8.332,8.332h164.271
			c4.603,0,8.332-3.731,8.332-8.332S436.117,297.634,431.514,297.634z"/>
	</g>
</g>
<g>
	<g>
		<path fill="#171717" d="M177.26,297.634H80.488c-4.602,0-8.332,3.731-8.332,8.332s3.731,8.332,8.332,8.332h96.771
			c4.602,0,8.332-3.731,8.332-8.332S181.861,297.634,177.26,297.634z"/>
	</g>
</g>
<g>
	<g>
		<path fill="#171717" d="M471.246,24.766H40.754C18.283,24.766,0,43.049,0,65.52v59.227c0,4.602,3.731,8.332,8.332,8.332
			s8.332-3.731,8.332-8.332V65.52c0-13.284,10.807-24.09,24.09-24.09h430.492c13.284,0,24.09,10.807,24.09,24.09v284.412h-52.21
			c-4.602,0-8.332,3.73-8.332,8.332c0,4.601,3.731,8.332,8.332,8.332h52.21v15.272c0,13.284-10.807,24.09-24.09,24.09h-155.41
			H196.164H40.754c-13.284,0-24.09-10.808-24.09-24.09v-15.272h398.688c4.603,0,8.332-3.731,8.332-8.332
			c0-4.602-3.73-8.332-8.332-8.332H16.664v-197.41c0-4.602-3.731-8.332-8.332-8.332S0,147.92,0,152.522V381.87
			c0,22.472,18.283,40.754,40.754,40.754H183.54l-20.494,47.945h-40.034c-4.602,0-8.332,3.73-8.332,8.332
			c0,4.601,3.731,8.332,8.332,8.332h265.975c4.602,0,8.332-3.731,8.332-8.332c0-4.602-3.731-8.332-8.332-8.332h-40.034
			l-20.494-47.945h142.786c22.472,0,40.754-18.282,40.754-40.754V65.52C512,43.049,493.717,24.766,471.246,24.766z M330.83,470.568
			H181.17l14.238-33.311h121.185L330.83,470.568z"/>
	</g>
</g>
<g>
	<g>
		<path fill="#171717" d="M262.924,379.68c-1.914-2.906-5.583-4.3-8.952-3.457c-3.517,0.879-6.116,4.047-6.291,7.67
			c-0.364,7.533,9.106,11.629,14.331,6.172C264.674,387.282,265.089,382.887,262.924,379.68z"/>
	</g>
</g>
</svg>
