<?xml version="1.0" encoding="utf-8"?>
<!-- Generator: Adobe Illustrator 16.0.0, SVG Export Plug-In . SVG Version: 6.00 Build 0)  -->
<!DOCTYPE svg PUBLIC "-//W3C//DTD SVG 1.1//EN" "http://www.w3.org/Graphics/SVG/1.1/DTD/svg11.dtd">
<svg version="1.1" id="Layer_1" xmlns="http://www.w3.org/2000/svg" xmlns:xlink="http://www.w3.org/1999/xlink" x="0px" y="0px"
	 width="512px" height="512px" viewBox="0 0 512 512" enable-background="new 0 0 512 512" xml:space="preserve">
<g>
	<g>
		<path fill="#171717" d="M386.455,198.212l-53.812-53.811c-3.253-3.254-8.527-3.255-11.783,0c-3.254,3.253-3.254,8.529,0,11.783
			l47.92,47.92l-47.92,47.919c-3.254,3.253-3.254,8.529,0,11.784c1.628,1.627,3.76,2.44,5.892,2.44s4.265-0.813,5.891-2.44
			l53.812-53.811C389.709,206.742,389.709,201.466,386.455,198.212z"/>
	</g>
</g>
<g>
	<g>
		<path fill="#171717" d="M143.223,204.102l47.919-47.92c3.254-3.253,3.254-8.529,0-11.783c-3.253-3.254-8.529-3.254-11.783,0
			l-53.811,53.811c-3.254,3.253-3.254,8.529,0,11.783l53.811,53.812c1.626,1.627,3.759,2.44,5.891,2.44s4.265-0.813,5.891-2.442
			c3.254-3.253,3.254-8.529,0-11.783L143.223,204.102z"/>
	</g>
</g>
<g>
	<g>
		<path fill="#171717" d="M283.221,118.176c-4.387-1.39-9.07,1.041-10.459,5.427L223.356,279.57c-1.39,4.387,1.04,9.07,5.427,10.459
			c0.838,0.267,1.685,0.392,2.519,0.392c3.535,0,6.816-2.269,7.941-5.817l49.403-155.968
			C290.037,124.248,287.607,119.565,283.221,118.176z"/>
	</g>
</g>
<g>
	<g>
		<path fill="#171717" d="M471.246,24.766H40.754C18.283,24.766,0,43.049,0,65.52v59.227c0,4.602,3.731,8.332,8.332,8.332
			s8.332-3.731,8.332-8.332V65.52c0-13.284,10.807-24.09,24.09-24.09h430.492c13.284,0,24.09,10.807,24.09,24.09v284.412h-52.21
			c-4.602,0-8.332,3.73-8.332,8.332c0,4.601,3.731,8.332,8.332,8.332h52.21v15.272c0,13.284-10.807,24.09-24.09,24.09h-155.41
			H196.164H40.754c-13.284,0-24.09-10.808-24.09-24.09v-15.272h398.688c4.603,0,8.332-3.731,8.332-8.332
			c0-4.602-3.73-8.332-8.332-8.332H16.664v-197.41c0-4.602-3.731-8.332-8.332-8.332S0,147.92,0,152.522V381.87
			c0,22.472,18.283,40.754,40.754,40.754H183.54l-20.494,47.945h-40.034c-4.602,0-8.332,3.73-8.332,8.332
			c0,4.601,3.731,8.332,8.332,8.332h265.975c4.602,0,8.332-3.731,8.332-8.332c0-4.602-3.731-8.332-8.332-8.332h-40.034
			l-20.494-47.945h142.786c22.472,0,40.754-18.282,40.754-40.754V65.52C512,43.049,493.717,24.766,471.246,24.766z M330.83,470.568
			H181.17l14.238-33.311h121.185L330.83,470.568z"/>
	</g>
</g>
<g>
	<g>
		<path fill="#171717" d="M262.924,379.68c-1.914-2.906-5.583-4.3-8.952-3.457c-3.517,0.879-6.116,4.047-6.291,7.67
			c-0.364,7.533,9.106,11.629,14.331,6.172C264.674,387.282,265.089,382.887,262.924,379.68z"/>
	</g>
</g>
</svg>
